<svg xmlns="http://www.w3.org/2000/svg" width="14" height="18" viewBox="0 0 14 18">
    <g fill="none" fill-rule="evenodd">
        <path d="M-3-1h20v20H-3z"/>
        <path fill="#FFF" fill-rule="nonzero" d="M11.693 9.978a3.89 3.89 0 0 1 1.862-3.266 4.008 4.008 0 0 0-3.154-1.698c-1.327-.139-2.613.79-3.29.79-.688 0-1.73-.776-2.85-.753A4.203 4.203 0 0 0 .725 7.197C-.803 9.831.337 13.703 1.8 15.833c.733 1.042 1.589 2.207 2.709 2.166 1.096-.045 1.505-.696 2.828-.696 1.311 0 1.695.696 2.838.67 1.176-.02 1.917-1.048 2.624-2.1A8.61 8.61 0 0 0 14 13.44a3.762 3.762 0 0 1-2.307-3.462zM9.968 2.78c.742-.775 1.107-1.773 1.019-2.78-1.133.104-2.18.576-2.932 1.322-.743.736-1.12 1.7-1.046 2.678 1.149.01 2.24-.44 2.96-1.22z"/>
    </g>
</svg>
