<svg xmlns="http://www.w3.org/2000/svg" width="16" height="18" viewBox="0 0 16 18">
    <g fill="none" fill-rule="evenodd">
        <path fill="#D8D8D8" fill-opacity="0" d="M-2-1h20v20H-2z"/>
        <path fill="#FFF" fill-rule="nonzero" d="M0 16.766V1.234C0 .694.306.219.757 0l8.88 9-8.88 9A1.38 1.38 0 0 1 0 16.766zm12.448-4.915L2.75 17.534l7.653-7.757 2.046 2.074zm3.02-3.938c.307.246.532.63.532 1.087 0 .457-.198.822-.514 1.078l-2.064 1.206L11.168 9l2.254-2.284 2.046 1.197zM2.75.466l9.7 5.683-2.047 2.074L2.75.466z"/>
    </g>
</svg>
