<svg xmlns="http://www.w3.org/2000/svg" xmlns:xlink="http://www.w3.org/1999/xlink" width="48" height="48" viewBox="0 0 48 48">
    <defs>
        <path id="a" d="M24 0c19.2 0 24 4.8 24 24s-4.8 24-24 24S0 43.2 0 24 4.8 0 24 0zm-8.118 37.189L15.012 39H33.75l-.869-1.81v-3.971c0-4.727-1.727-8.313-5.176-9.688l-1.667.656c2.862 1.957 2.993 5.746 2.993 8.47v4.494h-3.066v-9.864h-3.539v9.874h-2.71v-25.28h-3.834V37.19zm5.865-28.186L21.601 9H14.25l.847 1.745 7.18.003c1.064 0 2.68.25 3.821 1.745.594.758.96 1.53 1.088 2.539h-4.984v1.494h5.028c-.04.965-.226 2.044-1.121 3.19-.788 1.04-2.082 2.004-3.91 2.004a9.555 9.555 0 0 1-1.35-.085v1.52c.677.078 2.033.165 3.87-.07 2.686-.339 4.056-1.786 4.844-2.782 1.063-1.287 1.497-2.867 1.497-4.362 0-1.206-.317-3.615-2.324-5.275-1.38-1.122-2.6-1.663-5.513-1.663h-1.476z"/>
    </defs>
    <g fill="none" fill-rule="evenodd">
        <path fill="#FFF" fill-rule="nonzero" d="M10 8h27v34H10z"/>
        <use fill="#3081EA" xlink:href="#a"/>
    </g>
</svg>
